<?xml version="1.0" standalone="no"?>
<!DOCTYPE svg PUBLIC "-//W3C//DTD SVG 20010904//EN"
 "http://www.w3.org/TR/2001/REC-SVG-20010904/DTD/svg10.dtd">
<svg version="1.0" xmlns="http://www.w3.org/2000/svg"
 width="512.000000pt" height="512.000000pt" viewBox="0 0 512.000000 512.000000"
 preserveAspectRatio="xMidYMid meet">
<metadata>
Created by potrace 1.14, written by Peter Selinger 2001-2017
</metadata>
<g transform="translate(0.000000,512.000000) scale(0.100000,-0.100000)"
fill="#000000" stroke="none">
<path d="M1069 4916 c-2 -2 -25 -7 -51 -10 -71 -10 -224 -62 -298 -102 -264
-144 -447 -395 -504 -690 -13 -69 -15 -271 -13 -1594 1 -833 6 -1526 11 -1540
4 -14 8 -32 8 -40 0 -8 6 -21 12 -29 8 -11 8 -13 -1 -7 -9 5 -11 2 -7 -8 3 -9
10 -13 15 -10 5 3 9 0 9 -5 0 -6 -6 -11 -12 -11 -9 0 -9 -3 1 -9 8 -5 11 -15
9 -23 -3 -8 5 -25 19 -38 24 -23 24 -24 6 -38 -17 -14 -17 -14 4 -9 19 4 21 2
14 -11 -10 -20 -4 -42 11 -42 7 0 6 5 -1 14 -9 11 -9 16 0 22 7 4 9 3 6 -3 -4
-6 0 -16 7 -22 9 -8 13 -26 11 -49 -3 -37 -3 -37 11 -12 9 14 13 17 10 8 -3
-11 2 -22 14 -28 12 -7 17 -16 13 -27 -4 -9 -2 -14 4 -10 5 3 16 -2 24 -11 40
-49 40 -50 28 -58 -7 -4 -9 -3 -5 4 3 6 2 13 -4 17 -5 3 -10 0 -10 -9 0 -8 -6
-17 -13 -19 -6 -3 2 -4 20 -3 18 2 32 1 31 -3 -2 -18 3 -24 11 -13 7 11 9 11
14 -2 3 -8 1 -18 -5 -22 -7 -5 -8 -2 -3 6 5 9 4 11 -4 6 -6 -4 -19 -2 -27 5
-8 6 -17 9 -21 5 -3 -3 -1 -6 6 -6 7 0 9 -5 6 -10 -4 -6 -3 -10 2 -9 22 4 34
-2 27 -14 -6 -9 -5 -9 8 0 8 7 18 10 21 6 4 -3 7 -1 7 5 0 6 18 -5 39 -26 36
-34 38 -52 6 -52 -5 0 -4 4 3 9 11 7 10 9 -3 15 -9 3 -13 10 -10 16 3 5 1 10
-5 10 -7 0 -10 -7 -6 -15 3 -8 2 -15 -3 -15 -16 0 -20 14 -8 28 10 13 9 14 -2
7 -10 -5 -12 -4 -7 3 5 8 1 10 -9 5 -13 -5 -14 -7 -3 -14 10 -7 10 -9 -1 -9
-11 0 -10 -4 4 -13 12 -9 15 -19 10 -28 -7 -12 -6 -12 7 -1 12 10 17 10 26 0
6 -7 10 -17 10 -21 0 -5 4 -12 8 -15 4 -4 4 -2 0 5 -4 7 0 12 11 11 10 0 26 3
35 7 13 5 17 2 15 -14 -1 -12 -5 -21 -10 -21 -5 0 -6 7 -3 16 5 14 4 15 -9 4
-28 -23 -15 -31 37 -21 4 0 5 9 2 19 -5 16 -5 16 6 -1 6 -9 16 -14 22 -11 7 5
8 2 3 -6 -6 -10 -4 -12 9 -7 10 4 19 1 22 -8 4 -8 10 -12 15 -9 15 9 10 -3 -8
-17 -14 -12 -16 -12 -8 0 5 10 4 12 -3 7 -8 -5 -10 -1 -6 11 5 15 4 15 -4 3
-6 -8 -9 -17 -6 -21 2 -4 0 -10 -6 -14 -10 -6 -14 7 -11 32 2 13 -24 12 -36
-2 -4 -4 -3 -5 3 -2 7 4 15 0 18 -9 9 -23 8 -24 -11 -17 -10 3 -15 3 -11 -1 3
-4 12 -8 20 -10 7 -1 19 -6 27 -10 9 -6 12 -5 7 2 -3 6 -2 13 4 17 5 3 10 0
10 -7 0 -9 3 -9 8 -2 10 16 48 34 56 27 8 -8 -13 -33 -28 -33 -6 0 -4 5 4 10
9 6 10 10 3 10 -22 0 -24 -19 -3 -30 13 -7 19 -18 16 -26 -4 -11 -2 -12 12 -5
14 7 23 5 34 -9 9 -10 14 -21 11 -24 -4 -3 -2 -6 4 -6 5 0 15 11 21 25 15 32
15 35 1 35 -5 0 -7 -5 -3 -11 4 -8 1 -8 -12 -1 -11 5 -27 8 -37 7 -15 -3 -16
-1 -6 11 7 9 8 14 1 14 -6 0 -12 -5 -14 -12 -3 -7 -7 -8 -10 -3 -2 6 3 18 14
28 10 9 18 12 18 6 0 -6 7 -18 16 -26 13 -13 17 -14 24 -3 6 9 12 6 25 -14 17
-26 17 -27 0 -40 -17 -12 -16 -13 6 -11 14 2 35 -8 51 -23 15 -14 31 -22 35
-19 3 4 1 7 -6 7 -7 0 -9 5 -6 11 5 7 15 5 30 -5 20 -13 24 -13 29 -1 3 8 0
17 -6 21 -7 4 -8 3 -4 -4 9 -14 -4 -15 -24 -2 -13 8 -12 10 5 11 26 2 27 2 48
-6 14 -6 16 -3 11 11 -5 16 -4 16 5 4 9 -13 11 -13 11 0 0 9 3 11 8 5 11 -15
46 -19 36 -4 -4 8 -3 10 4 5 6 -4 9 -12 6 -20 -3 -7 2 -13 11 -13 9 0 14 5 12
12 -3 7 10 11 38 11 34 -1 41 -4 37 -16 -5 -13 -3 -13 12 -1 18 15 79 23 70
10 -2 -4 5 -7 16 -6 11 1 20 6 20 11 0 6 5 5 12 -2 7 -7 17 -8 29 -1 15 7 17
6 13 -5 -4 -11 1 -14 20 -12 22 3 24 1 14 -11 -8 -10 -13 -11 -18 -3 -5 8 -9
6 -14 -5 -9 -24 -8 -26 12 -23 9 2 16 -3 15 -9 -2 -7 2 -13 7 -13 6 0 10 7 10
15 0 8 5 15 11 15 5 0 7 -5 3 -11 -4 -8 -1 -8 12 -2 11 5 26 9 34 8 8 -1 23 3
33 7 12 6 19 4 23 -7 6 -14 8 -13 19 2 13 17 14 16 24 -7 5 -14 10 -18 10 -9
1 16 27 19 48 6 6 -4 14 -3 17 2 7 11 25 9 45 -3 10 -6 12 -5 7 2 -4 7 -3 12
3 12 5 0 9 9 8 20 -1 11 -5 20 -10 20 -5 0 -6 -7 -3 -16 6 -15 4 -15 -11 -3
-9 8 -14 9 -10 2 5 -7 1 -10 -10 -8 -10 1 -22 0 -28 -3 -20 -12 -63 -8 -58 5
4 11 8 11 20 1 12 -10 14 -9 13 3 -5 30 1 35 34 35 19 0 32 -5 29 -9 -3 -5 4
-6 15 -3 11 4 23 2 27 -4 3 -5 11 -10 17 -10 6 0 5 7 -3 18 -13 15 -12 16 4 3
25 -20 44 -55 25 -48 -7 2 -12 10 -10 16 4 18 -16 3 -29 -20 -9 -19 -9 -19 10
-10 16 9 23 7 40 -15 12 -15 21 -22 21 -16 0 6 -4 14 -10 17 -16 10 -11 23 8
20 9 -1 16 -7 15 -12 -1 -5 5 -10 13 -10 17 0 19 13 2 20 -10 4 -10 6 0 6 17
1 15 18 -3 18 -8 0 -11 -5 -8 -10 3 -6 1 -7 -5 -3 -21 13 -13 27 13 22 30 -6
32 0 6 14 -26 13 -51 3 -44 -18 8 -21 -1 -14 -15 13 -9 19 -7 20 33 20 24 0
42 -2 40 -6 -2 -3 9 -6 25 -6 16 0 27 3 25 6 -2 3 18 6 45 6 38 0 47 -2 42
-15 -5 -13 -3 -13 11 -2 9 8 21 11 27 7 5 -3 10 -1 10 6 0 7 7 4 15 -7 8 -10
14 -23 15 -29 0 -5 -5 -3 -10 5 -8 13 -10 13 -10 1 0 -11 -4 -10 -13 4 -14 18
-43 13 -32 -6 4 -5 1 -9 -4 -9 -6 0 -11 5 -11 12 0 6 -7 3 -16 -8 -15 -18 -15
-18 -5 3 6 12 11 24 11 26 0 9 -60 -1 -74 -12 -11 -9 -15 -9 -19 1 -5 16 -12
10 -22 -20 -5 -19 -3 -23 12 -20 10 2 17 -2 16 -10 -2 -6 2 -12 7 -12 6 0 10
7 10 15 0 8 5 15 11 15 5 0 7 -5 3 -11 -4 -8 -1 -8 12 -2 11 5 26 9 34 8 8 -1
23 3 33 7 12 6 19 4 23 -7 6 -14 8 -13 19 2 13 17 14 16 24 -7 7 -17 10 -19
10 -8 1 11 6 15 15 12 8 -3 17 -1 21 5 3 6 11 11 17 11 6 0 3 -9 -6 -19 -14
-15 -15 -21 -4 -27 7 -4 10 -4 6 1 -11 12 11 35 28 28 7 -3 12 -8 9 -12 -2 -4
2 -8 10 -8 11 0 12 4 3 14 -8 10 -6 13 10 10 11 -2 28 -9 39 -17 17 -14 17
-13 -1 8 -23 26 -11 29 17 4 11 -9 17 -12 14 -6 -4 7 0 17 8 24 13 11 14 10 9
-4 -5 -13 -2 -17 12 -14 11 2 18 -2 17 -8 -1 -6 5 -11 13 -11 17 0 19 13 2 20
-10 4 -10 6 0 6 6 1 12 6 12 12 0 5 -5 7 -10 4 -6 -4 -9 -1 -8 6 2 6 -3 14
-10 16 -11 4 -12 1 -4 -14 9 -15 8 -20 -3 -20 -8 0 -12 4 -9 9 3 4 2 13 -2 19
-4 8 -9 7 -15 -2 -4 -7 -26 -14 -48 -14 -22 0 -38 2 -36 5 2 4 -2 7 -9 7 -8 0
-12 -6 -9 -14 3 -7 0 -13 -6 -13 -6 0 -10 3 -10 7 3 19 -2 23 -20 14 -14 -8
-20 -7 -24 3 -6 16 3 30 23 34 10 1 9 -2 -4 -13 -26 -20 -2 -19 30 1 23 16 24
16 17 -2 -6 -17 -5 -17 11 -5 18 15 79 23 70 10 -2 -4 5 -7 16 -6 11 1 20 6
20 11 0 6 5 5 12 -2 7 -7 17 -8 29 -1 15 7 17 6 13 -5 -4 -11 1 -14 20 -12 22
3 24 1 14 -11 -8 -10 -13 -11 -18 -3 -5 8 -9 6 -14 -5 -9 -24 -8 -26 12 -23 9
2 16 -3 15 -9 -2 -7 2 -13 7 -13 6 0 10 7 10 15 0 8 5 15 11 15 5 0 7 -5 3
-11 -4 -8 -1 -8 12 -2 11 5 26 9 34 8 8 -1 23 3 33 7 12 6 19 4 23 -7 6 -14 8
-13 19 2 13 17 14 16 24 -7 5 -14 10 -18 10 -9 1 16 27 19 48 6 6 -4 14 -3 17
2 7 11 25 9 45 -3 10 -6 12 -5 7 2 -4 7 -3 12 3 12 5 0 9 9 8 20 -1 11 -5 20
-10 20 -5 0 -6 -7 -3 -16 6 -15 4 -15 -11 -3 -9 8 -14 9 -10 2 5 -7 1 -10 -10
-8 -10 1 -22 0 -28 -3 -20 -12 -63 -8 -58 5 4 11 8 11 20 1 12 -10 14 -9 13 3
-5 30 1 35 34 35 19 0 32 -5 29 -9 -3 -5 4 -6 15 -3 11 4 23 2 27 -4 3 -5 11
-10 17 -10 6 0 5 7 -3 18 -13 15 -12 16 4 3 25 -20 44 -55 25 -48 -7 2 -12 10
-10 16 4 18 -16 3 -29 -20 -9 -19 -9 -19 10 -10 16 9 23 7 40 -15 12 -15 21
-22 21 -16 0 6 -4 14 -10 17 -16 10 -11 23 8 20 9 -1 16 -7 15 -12 -1 -5 5
-10 13 -10 17 0 19 13 2 20 -10 4 -10 6 0 6 17 1 15 18 -3 18 -8 0 -11 -5 -8
-10 3 -6 1 -7 -5 -3 -21 13 -13 27 13 22 30 -6 32 0 6 14 -26 13 -51 3 -44
-18 8 -21 -1 -14 -15 13 -9 19 -7 20 33 20 24 0 42 -2 40 -6 -2 -3 9 -6 25 -6
16 0 27 3 25 6 -2 3 18 6 45 6 38 0 47 -2 42 -15 -5 -13 -3 -13 11 -2 9 8 21
11 27 7 5 -3 10 -1 10 6 0 7 7 4 15 -7 8 -10 14 -23 15 -29 0 -5 -5 -3 -10 5
-8 13 -10 13 -10 1 0 -11 -4 -10 -13 4 -14 18 -43 13 -32 -6 4 -5 1 -9 -4 -9
-6 0 -11 5 -11 12 0 6 -7 3 -16 -8 -15 -18 -15 -18 -5 3 6 12 11 24 11 26 0 9
-60 -1 -74 -12 -11 -9 -15 -9 -19 1 -5 16 -12 10 -22 -20 -5 -19 -3 -23 12
-20 10 2 17 -2 16 -9 -2 -7 2 -13 7 -13 6 0 10 7 10 15 0 8 5 15 11 15 5 0 7
-5 3 -11 -4 -8 -1 -8 12 -2 11 5 26 9 34 8 8 -1 23 3 33 7 12 6 19 4 23 -7 6
-14 8 -13 19 2 13 17 14 16 24 -7 7 -17 10 -19 10 -8 1 11 6 15 15 12 8 -3 17
-1 21 5 3 6 11 11 17 11 6 0 3 -9 -6 -19 -14 -15 -15 -21 -4 -27 7 -4 10 -4 6
1 -11 12 11 35 28 28 7 -3 12 -8 9 -12 -2 -4 2 -8 10 -8 11 0 12 4 3 14 -8 10
-6 13 10 10 11 -2 28 -9 39 -17 17 -14 17 -13 -1 8 -23 26 -11 29 17 4 11 -9
17 -12 14 -6 -4 7 0 17 8 24 13 11 14 10 9 -4 -5 -13 -2 -17 12 -14 11 2 18
-2 17 -8 -1 -6 5 -11 13 -11 17 0 19 13 2 20 -10 4 -10 6 0 6 6 1 12 6 12 12
0 5 -5 7 -10 4 -6 -4 -9 -1 -8 6 2 6 -3 14 -10 16 -11 4 -12 1 -4 -14 9 -15 8
-20 -3 -20 -8 0 -12 4 -9 9 3 4 2 13 -2 19 -4 8 -9 7 -15 -2 -4 -7 -26 -14
-48 -14 -22 0 -38 2 -36 5 2 4 -2 7 -9 7 -8 0 -12 -6 -9 -14 3 -7 0 -13 -6
-13 -6 0 -10 3 -10 8 3 18 -2 22 -20 13 -14 -8 -20 -7 -24 3 -6 16 3 30 23 34
10 1 9 -2 -4 -13 -26 -20 -2 -19 30 1 23 16 24 16 17 -2 -6 -17 -5 -17 11 -5
18 15 79 23 70 10 -2 -4 5 -7 16 -6 11 1 20 6 20 11 0 6 5 5 12 -2 7 -7 17 -8
29 -1 15 7 17 6 13 -5 -4 -11 1 -14 20 -12 22 3 24 1 14 -11 -8 -10 -13 -11
-18 -3 -5 8 -9 6 -14 -5 -9 -24 -8 -26 12 -23 9 2 16 -3 15 -9 -2 -7 2 -13 7
-13 6 0 10 7 10 15 0 8 5 15 11 15 5 0 7 -5 3 -11 -4 -8 -1 -8 12 -2 11 5 26
9 34 8 8 -1 23 3 33 7 12 6 19 4 23 -7 6 -14 8 -13 19 2 13 17 14 16 24 -7 5
-14 10 -18 10 -9 1 16 27 19 48 6 6 -4 14 -3 17 2 7 11 25 9 45 -3 10 -6 12
-5 7 2 -4 7 -3 12 3 12 5 0 9 9 8 20 -1 11 -5 20 -10 20 -5 0 -6 -7 -3 -16 6
-15 4 -15 -11 -3 -9 8 -14 9 -10 2 5 -7 1 -10 -10 -8 -10 1 -22 0 -28 -3 -20
-12 -63 -8 -58 5 4 11 8 11 20 1 12 -10 14 -9 13 3 -5 30 1 35 34 35 19 0 32
-5 29 -9 -3 -5 4 -6 15 -3 11 4 23 2 27 -4 3 -5 11 -10 17 -10 6 0 5 7 -3 18
-13 15 -12 16 4 3 25 -20 44 -55 25 -48 -7 2 -12 10 -10 16 4 18 -16 3 -29
-20 -9 -19 -9 -19 10 -10 16 9 23 7 40 -15 12 -15 21 -22 21 -16 0 6 -4 14
-10 17 -16 10 -11 23 8 20 9 -1 16 -7 15 -12 -1 -5 5 -10 13 -10 17 0 19 13 2
20 -10 4 -10 6 0 6 17 1 15 18 -3 18 -8 0 -11 -5 -8 -10 3 -6 1 -7 -5 -3 -21
13 -13 27 13 22 30 -6 32 0 6 14 -26 13 -51 3 -44 -18 8 -21 -1 -14 -15 13 -9
19 -7 20 33 20 24 0 42 -2 40 -6 -2 -3 9 -6 25 -6 16 0 27 3 25 6 -2 3 18 6
45 6 38 0 47 -2 42 -15 -5 -13 -3 -13 11 -2 9 8 21 11 27 7 5 -3 10 -1 10 6 0
7 7 4 15 -7 8 -10 14 -23 15 -29 0 -5 -5 -3 -10 5 -8 13 -10 13 -10 1 0 -11
-4 -10 -13 4 -14 18 -43 13 -32 -6 4 -5 1 -9 -4 -9 -6 0 -11 5 -11 12 0 6 -7
3 -16 -8 -15 -18 -15 -18 -5 3 6 12 11 24 11 26 0 9 -60 -1 -74 -12 -11 -9
-15 -9 -19 1 -5 16 -12 10 -22 -20 -5 -19 -3 -23 12 -20 10 2 17 -2 16 -9 -2
-7 2 -13 7 -13 6 0 10 7 10 15 0 8 5 15 11 15 5 0 7 -5 3 -11 -4 -8 -1 -8 12
-2 11 5 26 9 34 8 8 -1 23 3 33 7 12 6 19 4 23 -7 6 -14 8 -13 19 2 13 17 14
16 24 -7 5 -14 10 -18 10 -10 1 11 10 16 29 15 15 0 26 -6 25 -13 -2 -7 2 -12
7 -12 6 0 10 7 8 16 -2 10 3 19 11 22 9 3 11 0 6 -9 -5 -8 -5 -11 0 -7 4 4 15
2 23 -5 13 -9 14 -9 8 1 -8 14 -9 14 66 17 40 2 56 -1 51 -9 -3 -6 -2 -7 3 -3
5 5 9 14 9 19 0 6 6 13 14 16 9 3 11 0 6 -8 -5 -9 -4 -11 4 -6 6 4 9 12 6 17
-11 17 8 9 34 -13 14 -13 20 -16 13 -8 -14 17 -16 34 -2 25 6 -3 10 -1 10 5 0
6 4 9 9 5 5 -3 12 -1 16 5 4 6 11 7 17 4 7 -4 8 -2 4 4 -4 7 -2 12 5 12 6 0 9
-8 6 -19 -3 -13 -1 -18 9 -14 7 2 10 12 6 21 -5 15 -4 16 14 2 17 -14 18 -13
7 1 -13 16 -8 29 9 29 5 0 7 -4 4 -8 -3 -5 1 -9 9 -9 8 0 13 2 10 5 -7 7 14
42 26 42 6 0 7 -5 4 -10 -4 -6 5 -5 20 2 24 11 25 13 8 19 -19 8 -19 8 15 15
16 3 21 0 16 -8 -4 -7 -3 -8 5 -4 6 4 8 12 5 18 -5 8 -1 9 10 5 10 -4 24 -1
33 8 8 8 20 12 26 8 7 -3 9 -3 6 1 -4 4 3 18 15 31 21 24 21 24 36 4 16 -20
16 -20 16 0 0 11 -4 19 -9 18 -5 -1 -12 4 -15 12 -3 10 0 12 12 8 11 -5 15 -3
10 4 -4 7 -1 10 7 7 8 -3 14 -18 13 -36 0 -17 2 -29 6 -27 9 5 7 46 -3 61 -4
7 0 14 7 17 8 3 17 1 19 -6 2 -7 3 -5 2 4 -4 29 11 45 28 30 11 -8 17 -9 22
-1 4 6 1 9 -7 8 -7 -2 -13 6 -14 17 -3 49 -4 51 -26 25 l-21 -25 8 24 c4 13 3
21 -2 18 -5 -3 -15 -1 -23 5 -12 8 -12 9 2 4 10 -3 20 -1 23 4 4 6 1 10 -6 10
-7 0 -2 11 10 24 14 15 30 22 40 19 13 -5 14 -3 3 8 -6 7 -12 18 -12 24 0 5 5
2 11 -7 14 -26 32 -23 19 2 -12 23 -4 44 12 34 8 -5 9 -1 5 10 -5 11 -3 15 5
10 8 -5 9 -2 5 10 -4 11 -3 15 4 11 6 -4 9 -1 8 6 -1 8 1 22 5 31 7 15 11 15
44 -4 20 -11 42 -24 49 -30 7 -6 14 -5 19 3 4 7 3 9 -4 5 -15 -9 -26 12 -14
27 6 7 10 16 10 20 0 5 3 11 6 15 3 3 6 -1 6 -8 0 -7 3 -10 6 -7 4 4 1 13 -6
22 -10 12 -9 16 4 21 14 5 14 7 0 21 -12 13 -13 18 -3 24 7 4 17 5 23 2 5 -4
6 -1 1 7 -6 10 -2 12 15 7 14 -4 19 -2 14 3 -5 5 -18 11 -29 13 -11 1 -26 7
-34 11 -11 7 -12 6 -6 -5 8 -12 6 -12 -8 0 -9 7 -17 9 -17 3 0 -5 7 -12 15
-16 8 -3 15 -11 15 -17 0 -8 -5 -7 -17 2 -9 8 -14 9 -10 2 4 -6 3 -13 -3 -15
-6 -2 -6 -8 0 -18 8 -13 10 -12 10 3 0 10 4 16 9 12 15 -9 9 -46 -7 -40 -7 2
-11 1 -8 -3 3 -5 -1 -9 -9 -9 -10 0 -12 4 -5 12 5 6 5 16 0 25 -6 8 -10 13
-11 10 -8 -45 -11 -55 -22 -63 -12 -8 2 -6 54 9 19 5 20 4 8 -9 -8 -8 -18 -12
-23 -9 -5 3 -6 0 -2 -6 3 -6 2 -13 -4 -17 -5 -3 -10 1 -10 9 0 9 -6 13 -14 10
-17 -6 -31 12 -16 21 6 4 8 11 5 16 -4 5 -1 9 6 9 7 0 9 3 6 6 -3 4 2 18 13
32 11 13 17 28 14 33 -7 12 15 51 26 44 5 -3 11 -1 15 5 3 5 2 10 -3 10 -6 0
-13 7 -16 16 -3 8 -2 12 4 9 5 -3 8 9 6 28 -3 27 0 33 16 33 18 0 18 -1 2 -13
-16 -12 -12 -18 10 -14 5 1 4 -4 -2 -12 -7 -8 -9 -17 -5 -20 3 -4 1 -7 -7 -7
-10 0 -10 -3 -1 -14 8 -10 9 -16 1 -21 -12 -7 -14 -25 -2 -25 4 0 13 12 19 27
9 19 10 30 2 40 -14 17 2 17 20 0 11 -10 12 -9 6 2 -6 11 -4 13 9 8 12 -5 15
-3 9 6 -4 6 -8 19 -8 27 0 8 -5 15 -12 15 -17 0 -29 15 -12 16 8 1 18 1 22 0
5 -1 6 3 3 8 -4 5 0 11 6 14 7 2 10 8 5 12 -4 5 -14 0 -22 -11 -11 -13 -14
-14 -13 -4 2 8 12 21 23 28 15 10 16 12 3 8 -10 -3 -20 -1 -23 4 -5 9 7 14 26
12 4 -1 6 12 5 29 -2 34 20 73 36 63 7 -4 8 -2 4 5 -6 9 -11 9 -21 1 -9 -7
-15 -7 -19 -1 -4 5 2 14 11 20 10 6 13 11 6 11 -6 0 -15 -5 -18 -11 -4 -6 -14
-8 -24 -5 -9 4 -7 -2 8 -14 21 -18 20 -25 -1 -21 -4 0 -4 -7 -1 -16 5 -12 2
-15 -9 -11 -8 4 -15 1 -15 -7 0 -11 5 -11 20 -3 17 9 19 8 14 -7 -4 -9 -7 -19
-7 -21 0 -2 -5 -4 -11 -4 -5 0 -7 5 -3 12 4 6 3 8 -4 4 -6 -3 -14 -1 -19 6
-11 18 -11 87 0 85 5 -1 12 4 14 11 3 7 -1 11 -8 10 -8 -2 -13 11 -14 38 -1
34 2 41 15 36 13 -5 13 -4 0 13 -10 12 -15 42 -16 89 0 74 8 98 32 89 8 -3 14
0 14 7 0 6 -4 8 -10 5 -5 -3 -10 -1 -10 6 0 8 -4 8 -13 1 -10 -9 -13 9 -12 89
0 58 4 99 10 99 6 0 11 -4 11 -10 1 -5 2 -11 4 -12 6 -9 5 -50 -2 -54 -4 -3
-8 -10 -8 -17 0 -6 7 -2 16 9 14 18 15 18 4 -3 -6 -13 -8 -23 -5 -23 3 0 1
-10 -6 -21 -6 -12 -7 -19 -2 -16 5 4 10 0 10 -7 0 -8 -6 -12 -14 -9 -7 3 -13
1 -13 -4 0 -5 9 -9 20 -10 11 -1 20 4 19 10 -3 25 1 38 11 32 6 -4 8 -10 6
-14 -6 -9 32 -7 39 2 3 4 2 5 -1 2 -4 -2 -15 0 -26 6 -16 9 -17 13 -6 27 11
15 11 16 -4 4 -9 -8 -19 -9 -22 -4 -3 6 0 12 7 15 7 2 13 18 14 33 1 25 0 26
-7 9 -5 -11 -9 -17 -10 -12 -6 24 -2 45 14 70 10 15 16 30 12 34 -3 3 -6 1 -6
-6 0 -9 -4 -9 -14 1 -15 14 -11 32 5 23 5 -3 6 0 3 8 -3 8 2 20 11 27 8 7 15
17 15 23 0 6 -6 3 -13 -7 -12 -16 -14 -16 -32 5 -20 22 -20 22 1 15 17 -5 20
-2 20 24 0 20 -4 29 -12 26 -22 -8 -24 7 -3 22 15 10 17 17 9 27 -8 9 -8 15 0
20 7 4 7 12 0 26 -6 11 -15 17 -21 14 -16 -11 -10 32 7 46 15 12 16 11 10 -9
-4 -12 -3 -22 2 -22 5 0 9 15 8 32 0 19 4 32 10 31 6 -1 11 5 11 13 0 10 -4
11 -11 4 -6 -6 -16 -4 -28 7 -11 10 -18 11 -18 5 0 -7 5 -12 12 -12 6 0 3 -7
-8 -15 -15 -12 -16 -16 -5 -24 8 -5 9 -11 3 -15 -6 -3 -12 0 -15 6 -3 7 -5 2
-4 -12 0 -14 5 -30 10 -37 5 -7 5 -18 1 -24 -5 -8 -3 -9 7 -4 11 7 12 6 3 -6
-6 -8 -10 -32 -10 -54 2 -32 6 -39 19 -37 9 2 17 -2 17 -9 0 -6 -8 -9 -18 -7
-16 5 -18 0 -15 -36 2 -22 4 -51 5 -63 1 -12 6 -21 11 -20 5 1 11 -3 14 -9 2
-6 -3 -11 -11 -11 -8 0 -18 7 -20 14 -3 8 -9 12 -13 10 -5 -3 -8 505 -8 1128
0 623 3 1131 7 1128 5 -2 5 -10 1 -16 -3 -7 3 -4 14 6 11 9 23 14 28 10 4 -5
5 -2 1 5 -6 10 -11 10 -22 1 -8 -7 -14 -7 -14 -1 0 5 7 15 15 22 8 7 15 17 15
23 0 6 -7 1 -16 -11 -18 -26 -33 -29 -29 -4 1 9 0 21 -3 26 -3 6 -6 24 -8 40
-1 17 -6 48 -12 69 -6 21 -6 35 -1 32 5 -4 9 -2 9 4 0 5 -5 11 -10 13 -6 2
-12 13 -14 25 -3 12 -10 31 -16 42 -6 12 -7 21 -3 21 4 0 1 4 -7 10 -8 5 -11
12 -8 15 12 12 30 -7 23 -24 -5 -13 -4 -14 7 -3 11 11 8 17 -15 36 -38 31 -82
117 -65 128 9 5 5 8 -10 8 -13 0 -20 4 -17 10 4 6 12 7 18 4 8 -5 8 -3 0 7
-17 17 -17 32 0 23 7 -4 9 -3 4 2 -5 5 -14 9 -20 9 -7 0 -11 8 -11 16 1 11 -7
16 -25 15 -20 -1 -26 4 -26 19 -1 21 -24 68 -25 49 0 -5 5 -15 12 -22 8 -8 8
-12 1 -12 -20 0 -36 29 -25 43 6 7 7 18 3 26 -6 9 -11 10 -15 2 -4 -6 -2 -11
5 -11 10 0 10 -3 2 -11 -8 -8 -19 -4 -40 15 -20 19 -24 29 -16 34 9 5 6 12
-10 21 -20 13 -21 13 -8 -2 7 -10 9 -17 3 -17 -6 0 -20 12 -32 28 -12 15 -18
20 -15 12 4 -8 -4 -2 -18 13 -14 16 -29 29 -34 30 -4 1 -7 5 -6 9 2 4 -4 5
-12 2 -8 -4 -15 -1 -15 6 0 6 -4 8 -10 5 -10 -6 -15 9 -10 30 1 6 -4 4 -11 -2
-10 -10 -20 -7 -48 14 -19 15 -30 20 -26 12 7 -11 4 -11 -15 2 -28 17 -132 56
-170 63 -14 3 -36 8 -50 13 -25 8 -3053 17 -3061 9z m3704 -446 c-3 -3 -8 1
-10 8 -3 7 -11 18 -18 26 -8 7 -11 16 -8 20 4 3 15 -6 24 -21 10 -15 15 -30
12 -33z m201 -2425 c-4 -8 -11 -12 -16 -9 -6 4 -5 10 3 15 19 12 19 11 13 -6z
m-5 -111 c-7 -8 -6 -14 1 -19 13 -8 3 -25 -13 -24 -8 0 -7 3 2 6 11 5 11 7 0
14 -11 6 -11 11 -2 20 6 6 9 19 6 28 -4 13 -3 14 5 1 7 -9 8 -18 1 -26z m4
-170 c-7 -18 -12 -13 -18 16 -3 18 -2 20 10 10 8 -6 11 -18 8 -26z m-28 -707
c-4 -47 -4 -47 -20 -47 -18 0 -19 12 -3 28 7 7 8 12 2 12 -6 0 -11 7 -11 16 0
14 2 14 14 -2 15 -21 17 -11 3 16 -8 15 -7 18 3 14 9 -3 13 -17 12 -37z m25
-76 c0 -9 -20 -37 -20 -29 0 3 -2 13 -5 21 -4 8 0 14 10 14 8 0 15 -3 15 -6z
m-30 -137 c0 -8 -19 -13 -24 -6 -3 5 1 9 9 9 8 0 15 -2 15 -3z m-40 -118 c0
-2 -8 -10 -17 -17 -16 -13 -17 -12 -4 4 13 16 21 21 21 13z m-216 -253 c15
-28 16 -28 22 -5 3 12 10 22 15 22 26 0 -22 -61 -66 -83 -17 -8 -37 -26 -44
-39 -14 -28 -69 -64 -89 -60 -8 2 -20 -2 -28 -9 -8 -6 -14 -8 -14 -4 0 4 -7 2
-15 -5 -8 -7 -12 -16 -9 -21 3 -5 -1 -6 -9 -3 -9 3 -21 -4 -29 -15 -14 -20
-15 -20 -30 -2 -12 15 -13 22 -5 31 9 10 8 12 -8 6 -19 -6 -19 -6 -1 9 10 8
22 12 27 10 4 -3 10 1 13 7 4 9 5 8 5 -2 -2 -29 1 -43 8 -36 4 4 7 19 8 34 0
15 5 26 10 25 6 -2 10 -7 10 -12 0 -5 3 -13 8 -17 4 -4 7 -2 7 5 0 8 6 11 16
7 8 -3 12 -2 9 4 -3 5 8 7 26 5 17 -2 28 -1 24 3 -3 4 -22 7 -41 7 -19 0 -33
5 -31 10 2 11 12 11 42 -1 l20 -7 -20 24 c-19 22 -19 23 -1 9 18 -14 19 -13
13 2 -4 12 -2 15 9 11 11 -4 12 -9 3 -19 -7 -8 -7 -14 -1 -14 5 0 15 7 22 15
10 12 9 16 -4 21 -9 3 -13 11 -10 16 4 6 10 5 15 -3 7 -11 9 -10 9 4 0 9 5 17
12 17 6 0 8 3 5 7 -11 11 14 32 30 26 12 -5 14 -3 8 8 -7 11 -5 11 10 -1 17
-14 18 -13 12 3 -16 42 16 49 37 10z m-4104 -88 c-7 -8 -17 -12 -23 -8 -6 4
-3 9 9 14 27 11 28 11 14 -6z m3765 -116 c-4 -12 -3 -19 2 -16 5 3 15 2 23 -3
11 -7 12 -11 0 -25 -9 -11 -16 -13 -23 -6 -7 7 -14 5 -22 -6 -13 -18 -34 -24
-82 -26 -18 0 -35 -7 -38 -14 -2 -8 -9 -11 -15 -8 -5 3 -10 0 -10 -7 0 -9 -3
-9 -10 2 -8 12 -11 13 -19 1 -6 -9 -11 -10 -15 -2 -4 6 -2 11 5 11 7 0 9 3 5
7 -4 5 -13 0 -20 -9 -12 -16 -14 -16 -25 8 -6 15 -9 29 -6 32 3 3 5 0 5 -6 0
-7 5 -12 11 -12 5 0 7 6 3 13 -6 10 -4 10 7 0 18 -18 34 -16 19 2 -9 10 -9 15
-1 15 6 0 11 -5 11 -11 0 -5 5 -7 10 -4 6 3 10 2 10 -4 0 -5 -6 -11 -12 -14
-7 -3 -3 -4 8 -4 14 1 20 6 17 14 -3 7 0 13 7 13 6 0 8 -4 5 -10 -3 -5 -1 -10
4 -10 6 0 11 2 11 4 0 2 3 12 6 20 5 12 2 15 -12 10 -15 -5 -16 -4 -5 4 10 7
21 6 38 -5 28 -19 29 -23 3 -16 -11 3 -20 1 -20 -4 0 -5 10 -9 23 -7 12 1 22
3 22 4 0 1 8 3 19 5 23 5 59 42 46 50 -5 3 -14 -4 -20 -16 -7 -11 -14 -18 -17
-15 -4 3 -11 2 -17 -4 -8 -6 -16 -2 -25 12 -7 11 -8 17 -2 14 5 -4 13 -2 16 4
4 6 14 8 24 5 10 -3 26 3 37 14 25 25 27 25 19 0z m-3473 -23 c7 5 8 2 3 -6
-6 -10 -4 -12 8 -7 12 4 14 2 10 -10 -5 -12 -3 -14 8 -7 20 12 40 14 33 2 -4
-6 2 -8 17 -3 18 6 16 1 -11 -17 -34 -25 -35 -25 -56 -6 -11 10 -25 15 -29 11
-5 -5 -4 -1 3 9 9 11 10 18 2 23 -5 3 -10 12 -9 18 0 9 2 8 6 -1 2 -6 10 -9
15 -6z m-62 -28 c0 -6 -6 -5 -15 2 -8 7 -15 14 -15 16 0 2 7 1 15 -2 8 -4 15
-11 15 -16z m613 -47 c-3 -21 15 -25 29 -6 12 16 9 27 -4 19 -7 -4 -9 -3 -5 1
15 17 36 14 29 -3 -5 -15 -3 -15 11 -4 9 8 21 11 27 7 5 -3 10 0 10 7 0 7 7 2
16 -10 9 -13 13 -26 10 -29 -3 -4 -6 0 -6 7 0 9 -5 8 -13 -5 -10 -13 -16 -15
-21 -6 -4 6 -12 8 -19 4 -6 -3 -35 -7 -64 -8 -51 -2 -53 -2 -37 16 9 10 13 22
10 27 -3 6 2 9 11 7 12 -1 17 -10 16 -24z m147 15 c-7 -7 -13 -7 -20 0 -6 6
-3 10 10 10 13 0 16 -4 10 -10z m480 0 c-7 -7 -13 -7 -20 0 -6 6 -3 10 10 10
13 0 16 -4 10 -10z m333 -15 c-3 -21 15 -25 29 -6 12 16 9 27 -4 19 -7 -4 -9
-3 -5 1 15 17 36 14 29 -3 -5 -15 -3 -15 11 -4 9 8 21 11 27 7 5 -3 10 0 10 7
0 7 7 2 16 -10 9 -13 13 -26 10 -29 -3 -4 -6 0 -6 7 0 9 -5 8 -13 -5 -10 -13
-16 -15 -21 -6 -4 6 -12 8 -19 4 -6 -3 -35 -7 -64 -8 -51 -2 -53 -2 -37 16 9
10 13 22 10 27 -3 6 2 9 11 7 12 -1 17 -10 16 -24z m147 15 c-7 -7 -13 -7 -20
0 -6 6 -3 10 10 10 13 0 16 -4 10 -10z m480 0 c-7 -7 -13 -7 -20 0 -6 6 -3 10
10 10 13 0 16 -4 10 -10z m333 -15 c-3 -21 15 -25 29 -6 12 16 9 27 -4 19 -7
-4 -9 -3 -5 1 15 17 36 14 29 -3 -5 -15 -3 -15 11 -4 9 8 21 11 27 7 5 -3 10
0 10 7 0 7 7 2 16 -10 9 -13 13 -26 10 -29 -3 -4 -6 0 -6 7 0 9 -5 8 -13 -5
-10 -13 -16 -15 -21 -6 -4 6 -12 8 -19 4 -6 -3 -35 -7 -64 -8 -51 -2 -53 -2
-37 16 9 10 13 22 10 27 -3 6 2 9 11 7 12 -1 17 -10 16 -24z m147 15 c-7 -7
-13 -7 -20 0 -6 6 -3 10 10 10 13 0 16 -4 10 -10z m480 0 c-7 -7 -13 -7 -20 0
-6 6 -3 10 10 10 13 0 16 -4 10 -10z m40 4 c-8 -5 -13 -10 -10 -11 3 0 13 -2
23 -4 10 -2 21 3 24 11 8 22 25 5 18 -19 -6 -21 -5 -21 9 -4 8 11 17 14 20 8
4 -5 -3 -15 -14 -21 -16 -9 -22 -8 -26 5 -5 12 -9 13 -21 3 -21 -17 -82 -17
-76 -1 4 11 8 11 20 1 12 -10 14 -9 13 3 -4 28 0 39 18 39 14 0 15 -2 2 -10z
m-2099 -35 c0 -5 -18 -10 -40 -11 -22 0 -38 3 -35 8 3 5 9 6 14 3 5 -3 11 -1
14 3 7 12 46 10 47 -3z m83 -1 c5 -14 4 -15 -9 -4 -17 14 -19 20 -6 20 5 0 12
-7 15 -16z m64 3 c8 -10 6 -13 -7 -13 -11 0 -17 6 -14 13 3 7 6 13 8 13 1 0 7
-6 13 -13z m813 -2 c0 -5 -18 -10 -40 -11 -22 0 -38 3 -35 8 3 5 9 6 14 3 5
-3 11 -1 14 3 7 12 46 10 47 -3z m83 -1 c5 -14 4 -15 -9 -4 -17 14 -19 20 -6
20 5 0 12 -7 15 -16z m64 3 c8 -10 6 -13 -7 -13 -11 0 -17 6 -14 13 3 7 6 13
8 13 1 0 7 -6 13 -13z m813 -2 c0 -5 -18 -10 -40 -11 -22 0 -38 3 -35 8 3 5 9
6 14 3 5 -3 11 -1 14 3 7 12 46 10 47 -3z m83 -1 c5 -14 4 -15 -9 -4 -17 14
-19 20 -6 20 5 0 12 -7 15 -16z"/>
<path d="M4650 480 c0 -5 5 -10 11 -10 8 0 8 -5 -1 -15 -7 -8 -16 -13 -20 -10
-5 3 -11 -1 -13 -7 -4 -10 -8 -10 -15 1 -6 8 -12 9 -16 3 -3 -6 3 -14 15 -17
12 -4 17 -10 12 -14 -6 -3 -15 -16 -22 -29 -7 -12 -16 -20 -20 -17 -5 2 -14
-2 -20 -9 -7 -8 -8 -17 -3 -20 5 -3 27 15 49 39 22 24 36 46 31 47 -4 2 1 9
13 17 19 11 21 11 16 -3 -4 -10 -1 -13 8 -9 8 3 12 10 8 17 -8 11 -9 16 -12
36 0 6 -5 10 -11 10 -5 0 -10 -4 -10 -10z"/>
<path d="M4580 400 c-7 -13 -7 -20 -1 -20 6 0 15 9 21 20 7 13 7 20 1 20 -6 0
-15 -9 -21 -20z"/>
<path d="M4440 300 c0 -5 5 -10 11 -10 5 0 7 5 4 10 -3 6 -8 10 -11 10 -2 0
-4 -4 -4 -10z"/>
<path d="M4393 281 c-2 -22 12 -37 21 -23 3 5 0 17 -7 26 -12 16 -13 16 -14
-3z"/>
<path d="M4265 241 c-3 -6 3 -9 14 -8 11 0 17 5 15 9 -7 11 -22 10 -29 -1z"/>
<path d="M4346 241 c-4 -5 -2 -12 3 -15 5 -4 12 -2 15 3 4 5 2 12 -3 15 -5 4
-12 2 -15 -3z"/>
<path d="M884 203 c15 -18 22 -20 32 -12 8 6 11 15 8 21 -4 5 -11 5 -18 -1 -9
-7 -17 -7 -26 2 -8 6 -6 2 4 -10z"/>
<path d="M1406 173 c-6 -14 -5 -15 5 -6 7 7 10 15 7 18 -3 3 -9 -2 -12 -12z"/>
<path d="M1484 168 c-5 -7 -2 -8 6 -3 7 4 15 2 20 -5 5 -9 8 -8 13 2 6 17 -29
22 -39 6z"/>
<path d="M2366 173 c-6 -14 -5 -15 5 -6 7 7 10 15 7 18 -3 3 -9 -2 -12 -12z"/>
<path d="M2444 168 c-5 -7 -2 -8 6 -3 7 4 15 2 20 -5 5 -9 8 -8 13 2 6 17 -29
22 -39 6z"/>
<path d="M3326 173 c-6 -14 -5 -15 5 -6 7 7 10 15 7 18 -3 3 -9 -2 -12 -12z"/>
<path d="M3404 168 c-5 -7 -2 -8 6 -3 7 4 15 2 20 -5 5 -9 8 -8 13 2 6 17 -29
22 -39 6z"/>
<path d="M3990 177 c0 -2 6 -10 14 -16 11 -9 16 -9 22 1 4 7 4 10 -1 6 -4 -4
-14 -3 -22 3 -7 6 -13 9 -13 6z"/>
<path d="M4716 4613 c-6 -14 -5 -15 5 -6 7 7 10 15 7 18 -3 3 -9 -2 -12 -12z"/>
<path d="M4727 4556 c-4 -10 -1 -13 9 -9 15 6 19 23 5 23 -5 0 -11 -7 -14 -14z"/>
<path d="M4815 4460 c3 -5 8 -10 11 -10 2 0 4 5 4 10 0 6 -5 10 -11 10 -5 0
-7 -4 -4 -10z"/>
<path d="M4810 4430 c-12 -8 -12 -10 2 -15 9 -4 15 -12 12 -19 -3 -7 2 -19 10
-26 9 -7 13 -16 10 -21 -3 -5 2 -6 11 -3 14 6 13 9 -5 21 -12 8 -19 21 -16 29
3 7 1 16 -5 19 -5 4 -7 11 -4 16 8 11 4 11 -15 -1z"/>
<path d="M4853 4404 c-3 -8 -2 -19 3 -24 5 -5 9 1 9 16 0 28 -3 30 -12 8z"/>
<path d="M4879 4324 c17 -13 25 -14 34 -5 9 9 8 11 -4 6 -10 -4 -20 -2 -24 4
-3 6 -11 11 -18 11 -6 0 -1 -7 12 -16z"/>
<path d="M4900 4286 c0 -2 8 -10 18 -17 15 -13 16 -12 3 4 -13 16 -21 21 -21
13z"/>
<path d="M4886 4261 c-3 -5 1 -14 10 -21 12 -10 17 -11 27 -1 9 10 8 11 -7 5
-13 -5 -17 -4 -12 4 3 6 2 13 -3 16 -5 4 -12 2 -15 -3z"/>
<path d="M4910 4206 c29 -17 40 -20 40 -8 0 5 -6 9 -12 9 -7 0 -22 4 -33 7
-13 5 -12 2 5 -8z"/>
<path d="M4921 4173 c0 -6 -4 -20 -7 -30 -5 -14 -4 -15 5 -7 7 7 11 20 8 30
-3 11 -5 14 -6 7z"/>
<path d="M4927 4116 c-4 -10 -1 -13 9 -9 15 6 19 23 5 23 -5 0 -11 -7 -14 -14z"/>
<path d="M4950 4089 c0 -5 5 -7 10 -4 6 3 10 8 10 11 0 2 -4 4 -10 4 -5 0 -10
-5 -10 -11z"/>
<path d="M4932 4057 c-8 -10 -6 -13 11 -14 12 0 16 1 9 4 -6 3 -10 9 -6 14 8
14 -2 11 -14 -4z"/>
<path d="M4948 3946 c-22 -16 -22 -26 -3 -52 15 -18 15 -18 8 0 -5 14 -3 17 7
11 9 -5 11 -4 6 4 -4 6 -12 8 -18 5 -6 -4 -9 -1 -6 7 3 8 14 13 24 12 10 -1
13 0 6 3 -6 3 -10 10 -6 15 7 12 2 11 -18 -5z"/>
<path d="M4996 3915 c-11 -8 -15 -15 -9 -15 6 0 16 7 23 15 16 19 11 19 -14 0z"/>
<path d="M4974 3882 c4 -3 14 -7 22 -8 9 -1 13 0 10 4 -4 3 -14 7 -22 8 -9 1
-13 0 -10 -4z"/>
<path d="M4935 3851 c2 -14 6 -35 10 -45 5 -12 5 -17 -1 -13 -11 7 -12 -82 -1
-100 4 -6 3 -13 -3 -15 -6 -2 -2 -8 8 -15 13 -7 23 -8 33 -1 11 8 11 9 -3 4
-10 -3 -20 -1 -23 4 -4 6 1 10 9 10 8 0 17 4 20 9 4 5 -3 7 -14 4 -12 -3 -20
0 -20 6 0 7 5 9 12 5 7 -4 8 -3 4 5 -4 6 -11 9 -15 7 -4 -3 -8 8 -8 24 0 25 3
28 16 17 10 -8 13 -8 8 0 -4 6 -4 13 0 16 5 2 2 2 -4 1 -16 -4 -16 1 -2 28 8
15 8 19 0 14 -6 -4 -11 -3 -11 2 0 15 13 22 24 12 8 -6 12 -3 12 10 0 18 -2
18 -23 5 -13 -9 -23 -11 -23 -6 0 6 7 14 16 19 14 8 14 10 -3 14 -16 4 -19 1
-18 -21z"/>
<path d="M4996 3755 c-11 -8 -15 -15 -9 -15 6 0 16 7 23 15 16 19 11 19 -14 0z"/>
<path d="M4974 3722 c4 -3 14 -7 22 -8 9 -1 13 0 10 4 -4 3 -14 7 -22 8 -9 1
-13 0 -10 -4z"/>
<path d="M4938 3648 c10 -13 10 -17 0 -21 -10 -4 -10 -6 1 -6 11 -1 11 -4 0
-18 -8 -9 -9 -14 -3 -10 7 4 14 1 16 -6 6 -15 -1 -39 -10 -33 -4 2 -8 -6 -8
-19 -1 -13 4 -26 11 -29 9 -3 12 2 10 16 -3 12 0 27 6 34 7 9 7 19 0 33 -9 16
-8 20 7 24 16 4 16 5 -1 6 -10 0 -16 5 -13 10 3 5 -2 15 -12 22 -15 13 -16 12
-4 -3z"/>
<path d="M4975 3639 c-3 -4 2 -6 10 -5 21 3 28 13 10 13 -9 0 -18 -4 -20 -8z"/>
<path d="M4990 3616 c0 -2 8 -10 18 -17 15 -13 16 -12 3 4 -13 16 -21 21 -21
13z"/>
<path d="M4970 3541 c0 -6 4 -12 8 -15 5 -3 9 1 9 9 0 8 -4 15 -9 15 -4 0 -8
-4 -8 -9z"/>
<path d="M5015 3500 c-3 -5 -1 -10 4 -10 6 0 11 5 11 10 0 6 -2 10 -4 10 -3 0
-8 -4 -11 -10z"/>
<path d="M4944 3478 c-14 -21 -12 -56 3 -51 8 3 11 8 9 11 -3 3 -1 11 6 19 8
10 8 17 1 24 -8 8 -13 7 -19 -3z m8 -20 c-7 -7 -12 -8 -12 -2 0 6 3 14 7 17 3
4 9 5 12 2 2 -3 -1 -11 -7 -17z"/>
<path d="M4970 3440 c0 -5 5 -10 10 -10 6 0 10 5 10 10 0 6 -4 10 -10 10 -5 0
-10 -4 -10 -10z"/>
<path d="M4941 3406 c-9 -10 -8 -15 3 -19 11 -4 13 -1 9 10 -4 11 -2 14 5 9 7
-4 12 -2 12 3 0 15 -15 14 -29 -3z"/>
<path d="M4970 3379 c0 -5 5 -7 10 -4 6 3 10 8 10 11 0 2 -4 4 -10 4 -5 0 -10
-5 -10 -11z"/>
<path d="M4949 3358 c-1 -7 -1 -16 0 -20 0 -5 -4 -8 -11 -8 -9 0 -9 -3 0 -12
14 -14 16 -32 4 -24 -5 3 -9 -1 -9 -9 0 -15 34 -31 44 -21 4 3 -1 6 -10 6 -9
0 -17 5 -17 10 0 6 8 10 17 10 15 0 14 2 -3 15 -15 12 -16 16 -5 24 11 7 11
10 0 15 -8 3 -4 4 9 2 27 -5 28 0 2 14 -15 8 -20 8 -21 -2z"/>
<path d="M4975 3320 c-3 -5 -1 -10 4 -10 6 0 11 5 11 10 0 6 -2 10 -4 10 -3 0
-8 -4 -11 -10z"/>
<path d="M5015 3261 c-3 -5 -2 -12 3 -15 5 -3 9 1 9 9 0 17 -3 19 -12 6z"/>
<path d="M4934 3240 c0 -13 4 -16 10 -10 7 7 7 13 0 20 -6 6 -10 3 -10 -10z"/>
<path d="M4975 3240 c3 -5 8 -10 11 -10 2 0 4 5 4 10 0 6 -5 10 -11 10 -5 0
-7 -4 -4 -10z"/>
<path d="M4947 3215 c-17 -12 -17 -14 8 -39 30 -30 32 -31 32 -11 0 8 -2 13
-5 10 -2 -2 -11 3 -20 11 -13 13 -13 17 -1 24 7 5 11 11 9 14 -3 2 -13 -2 -23
-9z"/>
<path d="M4981 3204 c0 -11 3 -14 6 -6 3 7 2 16 -1 19 -3 4 -6 -2 -5 -13z"/>
<path d="M4934 3156 c0 -13 9 -29 19 -36 12 -7 17 -7 12 -1 -3 6 0 11 7 11 7
1 2 7 -12 15 -14 7 -23 16 -22 20 2 4 2 8 0 11 -2 2 -4 -7 -4 -20z"/>
<path d="M4933 3107 c0 -9 5 -17 11 -17 6 0 4 -5 -4 -10 -13 -9 -13 -10 0 -11
8 -1 21 -1 28 0 7 1 11 -4 10 -11 -5 -22 -21 -27 -33 -12 -9 13 -11 12 -11 -4
0 -15 6 -19 24 -16 14 3 21 1 18 -5 -4 -5 -3 -12 2 -15 5 -3 8 17 7 45 -1 42
1 49 14 44 12 -5 13 -3 4 6 -13 13 -37 3 -28 -12 13 -20 -13 -8 -27 13 -12 18
-15 19 -15 5z"/>
<path d="M4932 2980 c1 -26 4 -29 26 -25 13 2 27 7 31 10 3 3 -6 4 -20 2 -19
-4 -25 -1 -25 13 0 14 3 16 13 8 9 -7 13 -7 13 0 0 8 -22 22 -35 22 -2 0 -3
-13 -3 -30z"/>
<path d="M5015 2989 c-4 -6 -5 -12 -2 -15 2 -3 7 2 10 11 7 17 1 20 -8 4z"/>
<path d="M4975 2941 c-3 -6 -13 -8 -23 -6 -11 2 -18 -3 -18 -14 0 -10 6 -18
12 -18 7 0 10 7 7 14 -3 8 -2 13 3 12 5 -1 20 3 34 9 17 7 20 11 8 11 -9 1
-19 -3 -23 -8z"/>
<path d="M4934 2855 c1 -31 3 -33 13 -18 8 11 9 20 3 28 -5 7 -7 15 -3 18 3 4
2 7 -4 7 -6 0 -10 -16 -9 -35z"/>
<path d="M4960 2880 c0 -5 5 -10 11 -10 5 0 8 -4 4 -9 -3 -5 -1 -12 4 -15 5
-4 8 2 6 11 -2 10 -4 21 -4 26 -1 11 -21 8 -21 -3z"/>
<path d="M5010 2841 c0 -6 4 -13 10 -16 6 -3 7 1 4 9 -7 18 -14 21 -14 7z"/>
<path d="M4950 2821 c-16 -17 -23 -131 -7 -131 4 0 5 -6 0 -12 -10 -17 -11
-118 -1 -112 10 6 10 -10 1 -20 -11 -11 -11 -89 0 -103 6 -8 6 -13 0 -13 -5 0
-9 -11 -9 -24 0 -14 3 -23 7 -20 4 2 10 0 14 -6 4 -6 11 -8 16 -5 5 4 9 2 9
-4 0 -15 -18 -23 -25 -11 -3 5 -10 10 -16 10 -10 0 -8 -28 4 -47 5 -7 4 -13
-1 -13 -11 0 -10 -55 1 -66 4 -4 16 -8 27 -9 11 -1 18 1 15 3 -3 3 1 12 8 20
8 11 8 14 0 9 -6 -4 -15 -2 -18 4 -4 5 -13 8 -21 5 -8 -3 -14 -1 -14 4 0 6 5
10 11 10 5 0 7 5 4 10 -10 17 7 11 22 -7 13 -16 13 -16 3 5 -10 21 -9 22 15
18 14 -3 23 -1 20 4 -3 5 -19 7 -36 5 -26 -4 -29 -2 -19 10 7 8 16 13 20 10 4
-2 6 6 6 18 -1 12 2 29 8 37 6 8 7 12 2 8 -5 -4 -18 -2 -29 4 -21 11 -21 11 2
20 22 8 23 9 7 33 -17 26 -9 34 13 13 11 -11 12 -10 5 2 -15 26 -14 45 3 57
13 10 13 12 -5 10 -11 0 -18 -5 -15 -10 3 -5 0 -8 -8 -5 -7 2 -13 15 -13 28 0
13 6 26 13 28 8 3 11 0 7 -6 -3 -6 -3 -13 2 -16 4 -2 8 6 8 20 0 27 -6 30 -24
12 -8 -8 -12 -8 -12 -1 0 6 10 18 23 26 l22 16 -24 19 c-16 13 -20 22 -12 26
6 4 11 2 11 -3 0 -6 4 -11 8 -11 5 0 8 12 7 28 -1 15 2 32 6 38 5 6 3 11 -6
11 -8 0 -12 -4 -9 -9 8 -12 -10 -10 -24 4 -17 17 -15 29 3 22 8 -4 15 -1 15 5
0 6 -3 10 -7 10 -23 -4 -25 3 -4 14 14 6 26 19 28 27 3 10 1 9 -7 -2 -6 -10
-16 -18 -22 -18 -7 0 -6 6 2 15 17 21 9 26 -10 6z m27 -116 c0 -11 -26 -17
-28 -6 0 3 -2 14 -4 23 -2 14 0 15 14 6 10 -6 18 -16 18 -23z m3 -68 c0 -5 -7
-6 -16 -3 -8 3 -12 2 -9 -3 3 -5 2 -12 -3 -15 -5 -3 -8 8 -8 23 0 25 2 28 18
18 10 -7 18 -16 18 -20z m-15 -139 c-13 -8 -13 -12 2 -35 16 -24 16 -25 -3
-21 -15 3 -19 12 -19 50 0 45 0 46 18 31 16 -15 16 -18 2 -25z m4 -97 c8 -5 9
-11 3 -15 -5 -3 -15 1 -22 9 -14 16 -3 20 19 6z m-14 -50 c3 -5 2 -12 -3 -15
-5 -3 -9 1 -9 9 0 17 3 19 12 6z m19 -90 c3 -5 -1 -11 -9 -15 -15 -6 -29 7
-18 18 9 9 21 8 27 -3z"/>
<path d="M4987 2773 c3 -7 6 -13 8 -13 2 0 5 6 8 13 3 8 -1 14 -8 14 -7 0 -11
-6 -8 -14z"/>
<path d="M5015 2669 c-4 -6 -5 -12 -2 -15 2 -3 7 2 10 11 7 17 1 20 -8 4z"/>
<path d="M5015 2609 c-4 -6 -5 -12 -2 -15 2 -3 7 2 10 11 7 17 1 20 -8 4z"/>
<path d="M5010 2499 c0 -5 5 -7 10 -4 6 3 10 8 10 11 0 2 -4 4 -10 4 -5 0 -10
-5 -10 -11z"/>
<path d="M5015 2449 c-4 -6 -5 -12 -2 -15 2 -3 7 2 10 11 7 17 1 20 -8 4z"/>
<path d="M4934 2186 c1 -30 5 -42 13 -39 7 3 11 9 8 13 -3 5 -1 11 5 15 16 10
12 28 -5 21 -8 -3 -15 -1 -15 4 0 6 7 10 15 10 21 0 19 15 -3 17 -15 1 -18 -6
-18 -41z"/>
<path d="M4984 2203 c4 -12 2 -24 -4 -28 -16 -10 -12 -23 9 -35 14 -7 22 -7
27 2 4 6 3 8 -2 5 -14 -8 -38 9 -30 22 4 6 12 8 18 5 5 -4 4 4 -2 17 -17 33
-24 38 -16 12z"/>
<path d="M4944 2128 c-11 -17 -13 -79 -3 -73 4 3 6 12 3 19 -7 18 14 30 29 17
10 -7 13 -3 14 17 0 15 -1 19 -4 10 -4 -17 -33 -14 -33 4 0 5 5 6 10 3 6 -3
10 -1 10 4 0 15 -17 14 -26 -1z"/>
<path d="M4990 1971 c0 -6 4 -12 8 -15 5 -3 9 1 9 9 0 8 -4 15 -9 15 -4 0 -8
-4 -8 -9z"/>
<path d="M4933 1752 c2 -12 6 -24 10 -28 3 -4 4 4 2 16 -6 30 -16 40 -12 12z"/>
<path d="M4985 1670 c-3 -6 1 -7 9 -4 18 7 21 14 7 14 -6 0 -13 -4 -16 -10z"/>
<path d="M4934 1640 c0 -16 3 -27 6 -25 8 5 6 42 -1 50 -3 2 -5 -8 -5 -25z"/>
<path d="M4933 1569 c-2 -23 3 -25 10 -4 4 8 3 16 -1 19 -4 3 -9 -4 -9 -15z"/>
<path d="M4985 1510 c-3 -6 1 -7 9 -4 18 7 21 14 7 14 -6 0 -13 -4 -16 -10z"/>
<path d="M4981 1477 c-1 -15 -5 -16 -21 -7 -11 6 -20 9 -21 8 -6 -24 -5 -37 2
-32 5 3 9 0 9 -5 0 -6 -5 -11 -12 -11 -6 0 -3 -7 8 -15 13 -10 14 -13 3 -10
-13 5 -16 -2 -15 -39 1 -24 8 -51 15 -59 10 -13 9 -17 -6 -26 -11 -6 -13 -11
-5 -11 8 0 10 -5 5 -12 -10 -17 -13 -38 -5 -37 22 3 32 -2 26 -13 -5 -9 -2 -9
9 1 18 15 23 26 7 16 -5 -3 -11 -1 -11 4 -1 6 -2 17 -3 24 -1 6 9 22 22 35 12
12 19 22 13 22 -5 0 -13 -5 -16 -10 -4 -6 -11 -7 -17 -4 -7 4 -4 10 6 16 15 8
14 11 -6 28 -13 11 -19 19 -15 20 4 0 3 10 -4 21 -7 13 -7 19 -1 15 6 -3 13
-2 17 4 4 6 11 7 17 4 6 -4 8 -2 4 4 -3 6 1 18 10 26 8 9 10 16 4 16 -6 0 -13
-7 -16 -15 -4 -8 -10 -12 -16 -9 -5 3 -2 14 7 24 10 11 15 25 12 32 -4 8 -6 7
-6 -5z m-16 -25 c-3 -3 -11 0 -18 7 -9 10 -8 11 6 5 10 -3 15 -9 12 -12z m1
-129 c-10 -11 -19 -7 -22 10 -2 15 0 16 12 6 8 -6 12 -14 10 -16z m-9 -78 c0
-8 -4 -12 -9 -9 -5 3 -6 10 -3 15 9 13 12 11 12 -6z"/>
<path d="M4965 1380 c-3 -5 -1 -10 4 -10 6 0 10 -5 9 -11 -2 -6 4 -14 12 -16
10 -3 11 -2 4 4 -6 4 -10 16 -8 26 2 18 -11 23 -21 7z"/>
<path d="M4985 1259 c-11 -16 -1 -19 13 -3 7 8 8 14 3 14 -5 0 -13 -5 -16 -11z"/>
<path d="M4939 1189 c0 -2 -2 -13 -4 -25 -3 -13 1 -21 9 -21 9 0 13 8 10 20
-3 18 -13 36 -15 26z"/>
<path d="M5013 1113 c0 -9 4 -10 14 -2 7 6 13 12 13 14 0 1 -6 2 -13 2 -8 0
-14 -6 -14 -14z"/>
<path d="M5006 1082 c-3 -5 1 -9 9 -9 8 0 12 4 9 9 -3 4 -7 8 -9 8 -2 0 -6 -4
-9 -8z"/>
<path d="M5004 1022 c-11 -8 -15 -64 -3 -56 4 2 6 12 4 22 -1 9 2 23 8 30 11
13 7 15 -9 4z"/>
<path d="M4975 921 c-3 -5 -2 -12 3 -15 5 -3 9 1 9 9 0 17 -3 19 -12 6z"/>
<path d="M4944 889 c-7 -11 13 -29 31 -28 6 0 4 3 -3 6 -6 2 -10 9 -7 13 3 5
1 11 -4 14 -5 4 -13 1 -17 -5z"/>
<path d="M4948 792 c9 -10 19 -17 21 -16 6 5 -20 34 -30 34 -5 0 -1 -8 9 -18z"/>
<path d="M253 787 c0 -8 6 -14 14 -14 9 0 10 4 2 14 -6 7 -12 13 -14 13 -1 0
-2 -6 -2 -13z"/>
<path d="M4920 711 c0 -6 4 -13 10 -16 6 -3 7 1 4 9 -7 18 -14 21 -14 7z"/>
<path d="M4809 708 c-1 -4 -9 -51 -11 -65 -1 -12 -12 -17 -30 -14 -10 1 -10
-11 0 -25 10 -15 57 -39 48 -25 -9 14 0 14 27 0 18 -10 17 -7 -5 16 -26 25
-41 84 -18 70 5 -3 7 -12 4 -19 -3 -7 3 -19 12 -27 12 -9 15 -10 10 -1 -4 7
-2 12 4 12 6 0 9 4 6 9 -8 12 19 33 29 23 5 -4 5 -2 1 5 -4 7 -14 9 -23 6 -11
-4 -14 -2 -9 5 3 6 -2 16 -13 21 -19 11 -30 14 -32 9z m36 -43 c-4 -37 -12
-40 -13 -5 0 16 3 30 8 30 4 0 7 -11 5 -25z m-30 -54 c7 -12 -12 -24 -25 -16
-11 7 -4 25 10 25 5 0 11 -4 15 -9z"/>
<path d="M309 698 c-5 -16 -4 -46 2 -42 4 2 7 13 6 24 -1 17 -5 26 -8 18z"/>
<path d="M4915 660 c-3 -6 1 -7 9 -4 18 7 21 14 7 14 -6 0 -13 -4 -16 -10z"/>
<path d="M350 606 c5 -13 6 -27 2 -32 -4 -4 -1 -3 7 1 11 6 13 4 8 -9 -4 -9
-3 -15 2 -11 6 3 14 -2 19 -11 7 -13 10 -14 14 -2 6 14 -9 42 -27 49 -5 2 -9
9 -9 16 1 6 -4 14 -12 17 -10 4 -11 0 -4 -18z"/>
<path d="M4757 569 c-9 -5 -21 -8 -26 -5 -12 8 -28 -15 -28 -37 0 -10 6 -16
13 -13 8 3 16 1 19 -5 4 -5 11 -6 17 -3 6 4 8 -1 4 -14 -4 -12 -2 -23 5 -28 8
-4 9 -3 5 4 -4 6 -1 22 6 34 7 13 11 30 9 37 -2 13 -1 13 15 0 15 -12 16 -12
9 0 -6 11 -4 13 11 8 18 -7 18 -7 0 8 -13 10 -23 12 -30 5 -5 -5 -17 -10 -25
-10 -11 0 -10 4 5 15 22 17 17 19 -9 4z m14 -45 c-1 -17 -34 -11 -38 7 -3 10
-10 16 -16 12 -5 -3 -7 -1 -3 5 7 12 57 -9 57 -24z"/>
<path d="M4827 513 c3 -7 6 -13 8 -13 2 0 5 6 8 13 3 8 -1 14 -8 14 -7 0 -11
-6 -8 -14z"/>
<path d="M4601 301 c-8 -5 -9 -11 -3 -15 5 -3 12 1 16 9 6 17 6 18 -13 6z"/>
<path d="M691 244 c0 -11 3 -14 6 -6 3 7 2 16 -1 19 -3 4 -6 -2 -5 -13z"/>
<path d="M4521 237 c-13 -21 -12 -21 5 -5 10 10 16 20 13 22 -3 3 -11 -5 -18
-17z"/>
<path d="M4464 234 c-18 -14 -18 -15 4 -4 12 6 22 13 22 15 0 8 -5 6 -26 -11z"/>
<path d="M750 210 c-9 -6 -10 -10 -3 -10 6 0 15 5 18 10 8 12 4 12 -15 0z"/>
<path d="M4420 200 c-8 -5 -10 -10 -5 -10 6 0 17 5 25 10 8 5 11 10 5 10 -5 0
-17 -5 -25 -10z"/>
<path d="M1000 170 c-15 -11 -19 -19 -11 -24 6 -4 14 0 17 8 3 9 10 13 16 10
5 -3 4 -11 -3 -20 -8 -10 -8 -14 0 -14 6 0 11 5 11 10 0 12 22 9 32 -5 5 -6 8
-6 8 2 0 6 7 10 15 9 23 -3 29 -14 16 -30 -9 -11 -9 -16 0 -22 7 -4 9 -3 6 3
-4 6 0 16 8 23 8 7 15 9 15 4 0 -4 5 -3 12 4 16 16 31 15 25 -1 -3 -8 1 -14 8
-14 7 0 11 6 8 13 -3 8 2 11 14 10 10 -2 12 -1 5 1 -7 3 -10 9 -7 14 11 17 45
-10 38 -29 -6 -16 -6 -16 9 -1 17 17 64 18 61 2 -1 -5 5 -10 13 -10 8 0 14 4
14 9 0 4 -6 8 -12 8 -10 0 -10 2 -1 8 21 13 19 34 -5 38 -19 3 -21 1 -13 -15
9 -15 7 -18 -12 -16 -37 4 -38 5 -32 14 3 6 -4 15 -15 21 -17 9 -27 8 -45 -4
-19 -12 -26 -13 -32 -3 -11 16 -46 19 -55 4 -9 -15 -29 -16 -47 -3 -21 16 -36
15 -61 -4z m61 -7 c9 -9 7 -11 -5 -9 -9 1 -21 7 -27 13 -9 9 -7 11 5 9 9 -1
21 -7 27 -13z m63 6 c-4 -7 0 -9 14 -5 11 4 23 2 27 -4 5 -8 12 -7 23 2 15 12
16 11 3 -4 -7 -10 -17 -15 -23 -12 -5 3 -15 0 -23 -6 -11 -9 -15 -9 -15 -1 0
6 -3 10 -7 10 -20 -3 -24 2 -13 16 14 17 24 20 14 4z m123 -16 c0 -10 -4 -10
-16 -1 -9 7 -18 13 -20 15 -2 1 5 1 16 0 11 0 20 -7 20 -14z"/>
<path d="M1600 180 c-16 -10 -13 -12 20 -12 33 0 36 2 20 12 -8 5 -17 10 -20
10 -3 0 -12 -5 -20 -10z"/>
<path d="M2160 180 c-17 -11 -17 -11 29 -14 30 -2 32 -1 15 11 -21 15 -24 16
-44 3z"/>
<path d="M2560 180 c-16 -10 -13 -12 20 -12 33 0 36 2 20 12 -8 5 -17 10 -20
10 -3 0 -12 -5 -20 -10z"/>
<path d="M3120 180 c-17 -11 -17 -11 29 -14 30 -2 32 -1 15 11 -21 15 -24 16
-44 3z"/>
<path d="M3520 180 c-16 -10 -13 -12 20 -12 33 0 36 2 20 12 -8 5 -17 10 -20
10 -3 0 -12 -5 -20 -10z"/>
<path d="M861 164 c0 -11 3 -14 6 -6 3 7 2 16 -1 19 -3 4 -6 -2 -5 -13z"/>
<path d="M1270 166 c0 -9 5 -16 10 -16 6 0 10 4 10 9 0 6 -4 13 -10 16 -5 3
-10 -1 -10 -9z"/>
<path d="M4300 162 c0 -4 9 -8 19 -8 11 0 17 4 15 8 -3 4 -12 8 -20 8 -8 0
-14 -4 -14 -8z"/>
<path d="M4255 130 c-4 -6 -11 -8 -16 -5 -5 4 -9 1 -9 -4 0 -16 16 -13 30 4 7
8 10 15 7 15 -3 0 -9 -5 -12 -10z"/>
<path d="M975 120 c3 -5 8 -10 11 -10 2 0 4 5 4 10 0 6 -5 10 -11 10 -5 0 -7
-4 -4 -10z"/>
<path d="M1430 110 c0 -5 7 -6 17 -3 12 5 14 3 8 -7 -5 -9 -4 -11 4 -6 6 4 9
12 6 17 -8 12 -35 12 -35 -1z"/>
<path d="M1570 111 c0 -6 4 -13 10 -16 6 -3 7 1 4 9 -7 18 -14 21 -14 7z"/>
<path d="M1630 110 c0 -5 5 -10 11 -10 5 0 7 5 4 10 -3 6 -8 10 -11 10 -2 0
-4 -4 -4 -10z"/>
<path d="M1910 110 c0 -5 7 -6 17 -3 12 5 14 3 8 -7 -5 -9 -4 -11 4 -6 6 4 9
12 6 17 -8 12 -35 12 -35 -1z"/>
<path d="M2050 111 c0 -6 4 -13 10 -16 6 -3 7 1 4 9 -7 18 -14 21 -14 7z"/>
<path d="M2390 110 c0 -5 7 -6 17 -3 12 5 14 3 8 -7 -5 -9 -4 -11 4 -6 6 4 9
12 6 17 -8 12 -35 12 -35 -1z"/>
<path d="M2530 111 c0 -6 4 -13 10 -16 6 -3 7 1 4 9 -7 18 -14 21 -14 7z"/>
<path d="M2590 110 c0 -5 5 -10 11 -10 5 0 7 5 4 10 -3 6 -8 10 -11 10 -2 0
-4 -4 -4 -10z"/>
<path d="M2870 110 c0 -5 7 -6 17 -3 12 5 14 3 8 -7 -5 -9 -4 -11 4 -6 6 4 9
12 6 17 -8 12 -35 12 -35 -1z"/>
<path d="M3010 111 c0 -6 4 -13 10 -16 6 -3 7 1 4 9 -7 18 -14 21 -14 7z"/>
<path d="M3350 110 c0 -5 7 -6 17 -3 12 5 14 3 8 -7 -5 -9 -4 -11 4 -6 6 4 9
12 6 17 -8 12 -35 12 -35 -1z"/>
<path d="M3490 111 c0 -6 4 -13 10 -16 6 -3 7 1 4 9 -7 18 -14 21 -14 7z"/>
<path d="M3550 110 c0 -5 5 -10 11 -10 5 0 7 5 4 10 -3 6 -8 10 -11 10 -2 0
-4 -4 -4 -10z"/>
<path d="M3830 110 c0 -5 7 -6 17 -3 12 5 14 3 8 -7 -5 -9 -4 -11 4 -6 6 4 9
12 6 17 -8 12 -35 12 -35 -1z"/>
<path d="M3970 111 c0 -6 4 -13 10 -16 6 -3 7 1 4 9 -7 18 -14 21 -14 7z"/>
<path d="M1135 100 c3 -5 8 -10 11 -10 2 0 4 5 4 10 0 6 -5 10 -11 10 -5 0 -7
-4 -4 -10z"/>
<path d="M1275 100 c3 -5 8 -10 11 -10 2 0 4 5 4 10 0 6 -5 10 -11 10 -5 0 -7
-4 -4 -10z"/>
<path d="M1706 98 c3 -4 9 -8 15 -8 5 0 9 4 9 8 0 5 -7 9 -15 9 -8 0 -12 -4
-9 -9z"/>
<path d="M2160 100 c-12 -7 -10 -9 7 -7 12 0 19 5 17 9 -6 10 -6 10 -24 -2z"/>
<path d="M2230 100 c0 -5 5 -10 10 -10 6 0 10 5 10 10 0 6 -4 10 -10 10 -5 0
-10 -4 -10 -10z"/>
<path d="M2666 98 c3 -4 9 -8 15 -8 5 0 9 4 9 8 0 5 -7 9 -15 9 -8 0 -12 -4
-9 -9z"/>
<path d="M3120 100 c-12 -7 -10 -9 7 -7 12 0 19 5 17 9 -6 10 -6 10 -24 -2z"/>
<path d="M3190 100 c0 -5 5 -10 10 -10 6 0 10 5 10 10 0 6 -4 10 -10 10 -5 0
-10 -4 -10 -10z"/>
<path d="M3626 98 c3 -4 9 -8 15 -8 5 0 9 4 9 8 0 5 -7 9 -15 9 -8 0 -12 -4
-9 -9z"/>
<path d="M4100 105 c0 -7 30 -13 34 -7 3 4 -4 9 -15 9 -10 1 -19 0 -19 -2z"/>
</g>
</svg>
